<svg id="Layer_1" data-name="Layer 1" xmlns="http://www.w3.org/2000/svg" viewBox="0 0 234.3 65.59"><defs><style>.cls-1{fill:#f58236;}.cls-2{fill:#81b1cc;}.cls-3{fill:#003346;}</style></defs><path class="cls-1" d="M164.44,33l0-.09h-.05Z"/><path class="cls-2" d="M27.12,45.26l0-.06h0Z"/><path class="cls-2" d="M55.51,12.47a30.62,30.62,0,1,0-.17,43.13A30.5,30.5,0,0,0,55.51,12.47ZM55,55.27a29.92,29.92,0,1,1,.16-42.47A30,30,0,0,1,55,55.27Z"/><path class="cls-2" d="M32.74,5.52A27.58,27.58,0,0,0,8.6,46.44l.33.57a.5.5,0,0,0,.66.18l.26-.12a26.48,26.48,0,0,1,8.09-2.58l-4.12-3,5.36,2.89.75,0c.73,0,1.44,0,2.12.06L16.2,38.27l7.87,6.31c.37,0,.73.08,1.09.14l-6.09-9.16,8.39,9.59h0L22.38,33.39l6.64,11L25.84,31.92l4.61,12L29.32,31.08,32,43.73l.66-12.9.91,12.92,3.24-12.52L35.26,44.08l5.43-11.7L36.86,44.72l7.41-10.51-6,11.43,9.14-9L39.56,46.78l10.55-7.24-9.51,8.6,11.64-5.23L42,49.25l.64.06,11-2.89-7.57,3h.31A22.18,22.18,0,0,0,57,46.29,27.58,27.58,0,0,0,32.74,5.52ZM18.21,12.63c0-.11,0-.34.34-.34h2.61c.36,0,.34.23.34.34V14.8a.26.26,0,0,1-.27.26H18.47a.26.26,0,0,1-.27-.26Zm3.3,17.14a.25.25,0,0,1-.25.25H18.43a.25.25,0,0,1-.25-.25v-.68c0-2.43,0-11,0-11v-.48a.25.25,0,0,1,.25-.25h2.83a.25.25,0,0,1,.25.25V18s0,8.62,0,11.05Zm7.51.3-.19.05c-.53.09-1.77.23-2.1.23-2.82,0-3.13-1.8-3.13-2.41V12.54a.25.25,0,0,1,.25-.25h2.68a.25.25,0,0,1,.25.25V26.6a1.07,1.07,0,0,0,1.07,1.07H29a.25.25,0,0,1,.24.25v1.9C29.27,30,29.2,30,29,30.07Zm9.05-.27c-1.34.89-5.31.49-6.29.37l-.23,0a.26.26,0,0,1-.25-.25v-2c0-.14.11-.28.25-.25l.24.07a10.71,10.71,0,0,0,3.59.26c.57-.06,1-.44,1-1.37S35.16,25,34.46,24.51c-2.67-1.84-3.16-2.36-3.16-4.06s1.17-2.73,2.8-3.21a15,15,0,0,1,4.79,0l.22,0a.26.26,0,0,1,.25.24v.21s-.06,1.63-.08,1.81-.16.18-.31.16l-1.46-.21c-.45-.07-2.43-.22-2.89.47A1.29,1.29,0,0,0,35,21.62c.29.21,1.21.84,1.84,1.21a14.2,14.2,0,0,1,1.86,1.38C39.8,25.11,40.33,28.45,38.07,29.8Zm11.31.27-.25.08a8.37,8.37,0,0,1-1.47.21,6,6,0,0,1-4-.9c-1.68-1.15-2.18-2.93-2.18-6.27s1.44-4.8,2.41-5.44A6.18,6.18,0,0,1,47.05,17a14.11,14.11,0,0,1,2.28.28c.32.09.29.21.29.33v1.78a.24.24,0,0,1-.24.25h-.16l-.25,0c-.35,0-1-.12-1.65-.14a2.11,2.11,0,0,0-2,1,7.92,7.92,0,0,0-.48,2.88,12.21,12.21,0,0,0,.37,3.22c.25.77.72,1.07,1.67,1.26A5.29,5.29,0,0,0,49,27.69l.33-.07c.14,0,.25.11.25.25l0,1.95C49.63,30,49.51,30,49.38,30.07Z"/><path class="cls-2" d="M37.92,60.14a23,23,0,0,1-4.57.58,29.26,29.26,0,0,1-16.92-5.4l-.16-.14c-.05-.06-.05-.17,0-.2l.35-.08a21,21,0,0,1,4-.32,34.74,34.74,0,0,1,12.66,3.25c1.43.65,2.91,1.34,4.63,1.94l.29.13c.07,0,0,.16,0,.19Z"/><path class="cls-2" d="M47.16,56.66a27.66,27.66,0,0,1-5.54,2.49,37.35,37.35,0,0,1-8.29-2.95A34.2,34.2,0,0,0,20.71,53a19.92,19.92,0,0,0-5.73.57l-.28.07c-.13.05-.22.08-.41-.11L12.5,51.75a.24.24,0,0,1,.05-.34l.19-.09A22.38,22.38,0,0,1,21,49.88a34.33,34.33,0,0,1,12.66,3c3.38,1.46,7.06,3.2,13.44,3.35l.33,0a.11.11,0,0,1,0,.17Z"/><path class="cls-2" d="M55.32,49.09a27.44,27.44,0,0,1-5.2,5.4,20.18,20.18,0,0,1-3.06.17c-6.35-.15-10-1.89-13.39-3.34a34.11,34.11,0,0,0-12.61-3,23.5,23.5,0,0,0-9.34,1.84l-.24.09c-.21.11-.26.07-.34,0l-.93-1.26c-.15-.23-.06-.25,0-.34l.25-.14a24.23,24.23,0,0,1,9.91-2.63,34.31,34.31,0,0,1,12.76,2.37c3.44,1.28,7.19,2.82,13.55,2.64a21.65,21.65,0,0,0,8.38-2l.18-.08a.12.12,0,1,1,.15.19Z"/><path class="cls-2" d="M54.44,10.1a30.62,30.62,0,0,0-43.3,43.3,30.62,30.62,0,0,0,43.3-43.3Zm-.5,42.8A29.92,29.92,0,1,1,11.63,10.59,29.92,29.92,0,1,1,53.94,52.9Z"/><path class="cls-2" d="M53,12.07a30.62,30.62,0,0,0-43.3,43.3A30.62,30.62,0,0,0,53,12.07Zm-.49,42.8A29.92,29.92,0,1,1,10.15,12.56,29.92,29.92,0,1,1,52.47,54.87Z"/><path class="cls-3" d="M108.79,17.74v3.93c-3.83-.21-6.26,2-6.59,5.3v10H98.09v-19h4.11v3.79A6.93,6.93,0,0,1,108.79,17.74Z"/><path class="cls-3" d="M127.51,29H113.12A5.81,5.81,0,0,0,119,33.74a7.43,7.43,0,0,0,5.37-2.22l2.18,2.32a10.37,10.37,0,0,1-7.88,3.23c-5.86,0-9.73-3.91-9.73-9.63s4-9.67,9.63-9.7C125.29,17.74,128,22.1,127.51,29Zm-3.58-3c-.14-3.08-2.18-4.94-5.3-4.94A5.4,5.4,0,0,0,113.05,26Z"/><path class="cls-3" d="M130.88,44.05a6.42,6.42,0,0,1-4.4-1.61l1.75-3.18a4,4,0,0,0,2.47.93,3.11,3.11,0,0,0,2.9-2.12l.64-1.43-7.87-18.76h4.26l5.69,14.43,5.29-14.43h4.12l-8.66,21.66C135.89,42.55,133.74,44.05,130.88,44.05Z"/><path class="cls-3" d="M152.28,21c-1.61,0-2.79.54-2.79,1.9,0,3.51,10.13,1.61,10.1,8.52,0,3.9-3.48,5.66-7.31,5.66a11.78,11.78,0,0,1-7.66-2.65l1.47-2.94a10.38,10.38,0,0,0,6.37,2.36c1.76,0,3.12-.6,3.12-2,0-3.91-10-1.73-10-8.6,0-3.86,3.36-5.51,7-5.51a12.09,12.09,0,0,1,6.65,1.93l-1.5,3A11.26,11.26,0,0,0,152.28,21Z"/><path class="cls-3" d="M173,35.71a9.18,9.18,0,0,1-4.69,1.39c-2.86,0-5.33-1.65-5.33-5.55V20.91H160.3V17.83H163V13.37h4.08v4.46h5.62v3.08h-5.62V30.8c0,2,.75,2.58,2,2.58a6.72,6.72,0,0,0,2.86-.82Z"/><path class="cls-3" d="M192.45,27.36c0,5.77-4,9.71-9.92,9.71s-9.95-3.94-9.95-9.71,4-9.62,9.95-9.62S192.45,21.64,192.45,27.36Zm-15.75.08c0,3.68,2.4,6.19,5.83,6.19s5.8-2.51,5.8-6.19-2.4-6.2-5.8-6.2S176.7,23.78,176.7,27.44Z"/><path class="cls-3" d="M212.64,25.07V36.92h-4.12V26.22a4.25,4.25,0,0,0-4.58-4.62,5.34,5.34,0,0,0-5.41,5.19V36.92h-4.11v-19h4.11v3.65c1.36-2.65,3.8-3.79,7-3.79C210,17.74,212.64,20.53,212.64,25.07Z"/><path class="cls-3" d="M232.75,29H218.36a5.81,5.81,0,0,0,5.91,4.76,7.41,7.41,0,0,0,5.37-2.22l2.18,2.32A10.36,10.36,0,0,1,224,37.07c-5.87,0-9.74-3.91-9.74-9.63s4-9.67,9.63-9.7C230.53,17.74,233.25,22.1,232.75,29Zm-3.58-3C229,22.89,227,21,223.88,21A5.4,5.4,0,0,0,218.29,26Z"/><path class="cls-3" d="M94.7,24.88H86.19v3.68h6.13v3a11.71,11.71,0,0,1-5.76,1.72,8.9,8.9,0,1,1,0-17.79,10.91,10.91,0,0,1,7.24,2.86l2.39-3.11a15,15,0,0,0-9.63-3.51c-7.58,0-13.42,5.48-13.42,12.63S78.86,37.1,86.28,37.1A16.93,16.93,0,0,0,96,33.84v-9Z"/><path class="cls-2" d="M149.38,44a4,4,0,1,0,0,8,4.83,4.83,0,0,0,3.26-1.41L154,52.05a6.83,6.83,0,0,1-4.73,2.05,6.08,6.08,0,1,1,.09-12.16A6.66,6.66,0,0,1,154,43.86l-1.33,1.68A4.52,4.52,0,0,0,149.38,44Z"/><path class="cls-2" d="M170.5,48a6.4,6.4,0,1,1-6.39-6.07A6.14,6.14,0,0,1,170.5,48Zm-10.43,0a4.07,4.07,0,0,0,4.08,4,4,4,0,1,0-4.08-4Z"/><path class="cls-2" d="M176.53,42v9.92h5.17V54h-7.46V42Z"/><path class="cls-2" d="M187.7,42v9.92h5.18V54h-7.47V42Z"/><path class="cls-2" d="M205.4,42v2h-6.49v3h5.82v2h-5.82v3h6.48v2h-8.78V42Z"/><path class="cls-2" d="M220.19,47.46h-4.8v1.77h2.82v2a5.43,5.43,0,0,1-2.59.76,4,4,0,1,1,0-8.07A5.15,5.15,0,0,1,219,45.26l1.3-1.68a7.38,7.38,0,0,0-4.69-1.71A6.09,6.09,0,1,0,215.47,54a8.41,8.41,0,0,0,4.74-1.55V48h0Z"/><path class="cls-2" d="M232.82,42v2h-6.49v3h5.82v2h-5.82v3h6.48v2H224V42Z"/></svg>